<svg xmlns="http://www.w3.org/2000/svg" width="1200" height="630" viewBox="0 0 1200 630" role="img" aria-label="Replication and Comparison light preview">
  <style>
    :root {
      --c-bg-1:       #f4f6f9;
      --c-bg-2:       #e8ecf2;
      --c-surface:    #ffffff;
      --c-card:       #f4f6f9;
      --c-border:     #dde1e7;
      --c-text:       #3a4658;
      --c-blue:       #58a6ff;
      --c-green:      #3fb950;
      --c-red:        #f85149;
      --c-amber:      #d29922;
      --c-gray:       #6e7681;
      --c-purple:     #bc8cff;
      --c-cyan:       #79c0ff;
      --c-node-root:  #dbeafe;
      --c-node-green: #dcfce7;
      --c-node-red:   #fee2e2;
      --c-node-dim:   #e2e8f0;
      --c-line-dim:   #94a3b8;
    }
  </style>
  <defs>
    <linearGradient id="bg" x1="0" y1="0" x2="1" y2="1">
      <stop offset="0%" stop-color="var(--c-bg-1)"/>
      <stop offset="100%" stop-color="var(--c-bg-2)"/>
    </linearGradient>
  </defs>

  <rect width="1200" height="630" fill="url(#bg)"/>
  <rect x="68" y="58" width="1064" height="514" rx="22" fill="var(--c-surface)" stroke="var(--c-border)"/>

  <text x="112" y="156" fill="var(--c-blue)" font-size="70" font-family="Segoe UI, Arial, sans-serif" font-weight="700">Replication and Comparison</text>
  <text x="112" y="210" fill="var(--c-text)" font-size="45" font-family="Segoe UI, Arial, sans-serif">Variance overlap and rank inversion</text>

  <!-- Left panel: bar chart -->
  <g transform="translate(112,264)">
    <rect x="0" y="0" width="464" height="252" rx="16" fill="var(--c-card)" stroke="var(--c-border)"/>
    <line x1="168" y1="220" x2="168" y2="158" stroke="var(--c-green)" stroke-width="4"/>
    <line x1="296" y1="220" x2="296" y2="104" stroke="var(--c-blue)"  stroke-width="4"/>
  </g>

  <!-- Right panel: overlapping bell curves -->
  <g transform="translate(624,264)">
    <rect x="0" y="0" width="464" height="252" rx="16" fill="var(--c-card)" stroke="var(--c-border)"/>
    <path d="M 38 216 C 98 216, 143 46, 188 46 C 234 46, 279 216, 340 216"   fill="none" stroke="var(--c-blue)"  stroke-width="4" stroke-linecap="round"/>
    <path d="M 113 216 C 188 216, 204 100, 272 100 C 340 100, 355 216, 431 216" fill="none" stroke="var(--c-green)" stroke-width="4" stroke-linecap="round"/>
    <line x1="181" y1="216" x2="181" y2="174" stroke="var(--c-green)" stroke-width="3.5" opacity="0.8"/>
    <line x1="257" y1="216" x2="257" y2="127" stroke="var(--c-blue)"  stroke-width="3.5" opacity="0.8"/>
  </g>
</svg>
