<svg xmlns="http://www.w3.org/2000/svg" width="1200" height="630" viewBox="0 0 1200 630" role="img" aria-label="Replication and Comparison - OG Image Final Integrada">
  <defs>
    <linearGradient id="bg" x1="0" y1="0" x2="1" y2="1">
      <stop offset="0%" stop-color="#0b0f14"/>
      <stop offset="100%" stop-color="#0d1117"/>
    </linearGradient>
  </defs>

  <rect width="1200" height="630" fill="url(#bg)"/>
  <rect x="68" y="58" width="1064" height="514" rx="22" fill="#161b22" stroke="#30363d"/>

  <text x="112" y="156" fill="#58a6ff" font-size="70" font-family="Segoe UI, Arial, sans-serif" font-weight="700">Replication and Comparison</text>
  <text x="112" y="210" fill="#e6edf3" font-size="45" font-family="Segoe UI, Arial, sans-serif">Variance overlap and rank inversion</text>

  <g transform="translate(112,264)">
    <rect x="0" y="0" width="464" height="252" rx="16" fill="#0f1725" stroke="#30363d"/>
    <line x1="168" y1="220" x2="168" y2="158" stroke="#3fb950" stroke-width="4"/>
    <line x1="290" y1="220" x2="290" y2="104" stroke="#58a6ff" stroke-width="4"/>
  </g>

  <g transform="translate(624,264)">
    <rect x="0" y="0" width="464" height="252" rx="16" fill="#0f1725" stroke="#30363d"/>

    <path d="M 38 216 C 98 216, 143 46, 188 46 C 234 46, 279 216, 340 216" fill="none" stroke="#58a6ff" stroke-width="4" stroke-linecap="round"/>

    <path d="M 113 216 C 188 216, 204 100, 272 100 C 340 100, 355 216, 431 216" fill="none" stroke="#3fb950" stroke-width="4" stroke-linecap="round"/>

    <line x1="181" y1="216" x2="181" y2="174" stroke="#3fb950" stroke-width="3.5" opacity="0.85"/>

    <line x1="257" y1="216" x2="257" y2="127" stroke="#58a6ff" stroke-width="3.5" opacity="0.85"/>
  </g>
</svg>
