<svg xmlns="http://www.w3.org/2000/svg" width="1200" height="630" viewBox="0 0 1200 630" role="img" aria-label="ML Variance Analysis Tools social preview">
  <defs>
    <linearGradient id="bg" x1="0" y1="0" x2="1" y2="1">
      <stop offset="0%" stop-color="#0b0f14"/>
      <stop offset="100%" stop-color="#0d1117"/>
    </linearGradient>
  </defs>

  <rect width="1200" height="630" fill="url(#bg)"/>
  <rect x="68" y="58" width="1064" height="514" rx="22" fill="#161b22" stroke="#30363d"/>

  <text x="112" y="156" fill="#58a6ff" font-size="70" font-family="Segoe UI, Arial, sans-serif" font-weight="700">ML Variance Analysis Tools</text>
  <text x="112" y="210" fill="#e6edf3" font-size="45" font-family="Segoe UI, Arial, sans-serif">Machine learning variance analysis tools</text>

  <!-- Card 1: Replication and Comparison (x=112, w=312) -->
  <g transform="translate(112,264)">
    <rect x="0" y="0" width="312" height="252" rx="12" fill="#0f1725" stroke="#30363d"/>
    <text x="24" y="52" fill="#e6edf3" font-size="28" font-family="Segoe UI, Arial, sans-serif" font-weight="700">Replication</text>
    <!-- Overlapping bell curves -->
    <path d="M 20 228 C 58 228, 86 82, 120 82 C 154 82, 182 228, 220 228" fill="none" stroke="#58a6ff" stroke-width="3.5" stroke-linecap="round"/>
    <path d="M 56 228 C 92 228, 110 120, 155 120 C 200 120, 218 228, 260 228" fill="none" stroke="#3fb950" stroke-width="3.5" stroke-linecap="round"/>
    <!-- Markers: each line has the OTHER bell's color and reaches that bell's curve -->
    <line x1="120" y1="228" x2="120" y2="149" stroke="#3fb950" stroke-width="3" opacity="0.8"/>
    <line x1="155" y1="228" x2="155" y2="122" stroke="#58a6ff" stroke-width="3" opacity="0.8"/>
  </g>

  <!-- Card 2: Ablation Tests (x=444, w=312) -->
  <g transform="translate(444,264)">
    <rect x="0" y="0" width="312" height="252" rx="12" fill="#0f1725" stroke="#30363d"/>
    <text x="24" y="52" fill="#e6edf3" font-size="28" font-family="Segoe UI, Arial, sans-serif" font-weight="700">Ablation Tests</text>
    <!-- Horizontal tree: root (left) → two children (right) -->
    <line x1="91" y1="148" x2="217" y2="107" stroke="#3fb950" stroke-width="3" stroke-linecap="round"/>
    <line x1="91" y1="162" x2="217" y2="203" stroke="#30363d" stroke-width="3" stroke-linecap="round"/>
    <circle cx="238" cy="100" r="22" fill="#0d2818" stroke="#3fb950" stroke-width="3"/>
    <circle cx="238" cy="210" r="22" fill="#161b22" stroke="#30363d" stroke-width="3"/>
    <circle cx="70" cy="155" r="22" fill="#1c2d3f" stroke="#58a6ff" stroke-width="3"/>
  </g>

  <!-- Card 3: Standardizing Comparisons (x=776, w=312) -->
  <g transform="translate(776,264)">
    <rect x="0" y="0" width="312" height="252" rx="12" fill="#0f1725" stroke="#30363d"/>
    <text x="24" y="52" fill="#e6edf3" font-size="28" font-family="Segoe UI, Arial, sans-serif" font-weight="700">Standardizing</text>
    <!-- Two survival curves from same origin (standardized scale) -->
    <path d="M 22 78 C 65 78, 100 78, 148 155 C 196 230, 255 234, 288 234" fill="none" stroke="#58a6ff" stroke-width="3.5" stroke-linecap="round"/>
    <path d="M 22 78 C 80 78, 160 98, 210 155 C 260 210, 285 234, 288 234" fill="none" stroke="#3fb950" stroke-width="3.5" stroke-linecap="round"/>
  </g>
</svg>
