<svg xmlns="http://www.w3.org/2000/svg" width="1200" height="630" viewBox="0 0 1200 630" role="img" aria-label="ML Variance Analysis Tools social preview">
  <defs>
    <linearGradient id="bg" x1="0" y1="0" x2="1" y2="1">
      <stop offset="0%" stop-color="#0b0f14"/>
      <stop offset="100%" stop-color="#0d1117"/>
    </linearGradient>
  </defs>

  <rect width="1200" height="630" fill="url(#bg)"/>
  <rect x="68" y="58" width="1064" height="514" rx="22" fill="#161b22" stroke="#30363d"/>

  <text x="112" y="156" fill="#58a6ff" font-size="70" font-family="Segoe UI, Arial, sans-serif" font-weight="700">ML Variance Analysis Tools</text>
  <text x="112" y="210" fill="#e6edf3" font-size="45" font-family="Segoe UI, Arial, sans-serif">Machine learning variance analysis tools</text>

  <!-- Card 1: Model & Data Inspector (x=112, w=312) -->
  <g transform="translate(112,264)">
    <rect x="0" y="0" width="312" height="252" rx="12" fill="#0f1725" stroke="#30363d"/>
    <!-- 4×3 data grid — 48×38 cells, 10px gap, 45px margins (centered) -->
    <rect x="45"  y="59"  width="48" height="38" rx="5" fill="#161b22" stroke="#30363d" stroke-width="2"/>
    <rect x="103" y="59"  width="48" height="38" rx="5" fill="#1c2d3f" stroke="#30363d" stroke-width="2"/>
    <rect x="161" y="59"  width="48" height="38" rx="5" fill="#1c2d3f" stroke="#30363d" stroke-width="2"/>
    <rect x="219" y="59"  width="48" height="38" rx="5" fill="#161b22" stroke="#30363d" stroke-width="2"/>
    <rect x="45"  y="107" width="48" height="38" rx="5" fill="#161b22" stroke="#30363d" stroke-width="2"/>
    <rect x="103" y="107" width="48" height="38" rx="5" fill="#1c2d3f" stroke="#3fb950" stroke-width="3"/>
    <rect x="161" y="107" width="48" height="38" rx="5" fill="#1c2d3f" stroke="#3fb950" stroke-width="3"/>
    <rect x="219" y="107" width="48" height="38" rx="5" fill="#161b22" stroke="#30363d" stroke-width="2"/>
    <rect x="45"  y="155" width="48" height="38" rx="5" fill="#161b22" stroke="#30363d" stroke-width="2"/>
    <rect x="103" y="155" width="48" height="38" rx="5" fill="#1c2d3f" stroke="#30363d" stroke-width="2"/>
    <rect x="161" y="155" width="48" height="38" rx="5" fill="#1c2d3f" stroke="#30363d" stroke-width="2"/>
    <rect x="219" y="155" width="48" height="38" rx="5" fill="#161b22" stroke="#30363d" stroke-width="2"/>
    <!-- Magnifying glass -->
    <circle cx="156" cy="126" r="64" fill="#58a6ff06" stroke="#58a6ff" stroke-width="5"/>
    <line x1="203" y1="173" x2="252" y2="222" stroke="#58a6ff" stroke-width="10" stroke-linecap="round"/>
  </g>

  <!-- Card 2: Replication and Comparison (x=444, w=312) — 36px margins, lines at own peaks -->
  <g transform="translate(444,264)">
    <rect x="0" y="0" width="312" height="252" rx="12" fill="#0f1725" stroke="#30363d"/>
    <!-- Overlapping bell curves — shifted +16px: blue x=36–236, green x=72–276 -->
    <path d="M 36 199 C 74 199, 102 53, 136 53 C 170 53, 198 199, 236 199" fill="none" stroke="#58a6ff" stroke-width="3.5" stroke-linecap="round"/>
    <path d="M 72 199 C 108 199, 126 91, 171 91 C 216 91, 234 199, 276 199" fill="none" stroke="#3fb950" stroke-width="3.5" stroke-linecap="round"/>
    <line x1="136" y1="199" x2="136" y2="114" stroke="#3fb950" stroke-width="3" opacity="0.8"/>
    <line x1="171" y1="199" x2="171" y2="93"  stroke="#58a6ff" stroke-width="3" opacity="0.8"/>
  </g>

  <!-- Card 3: Ablation Tests (x=776, w=312) — visuals recentred -29px -->
  <g transform="translate(776,264)">
    <rect x="0" y="0" width="312" height="252" rx="12" fill="#0f1725" stroke="#30363d"/>
    <!-- Horizontal tree: root → two children -->
    <line x1="91" y1="119" x2="217" y2="78"  stroke="#3fb950" stroke-width="3" stroke-linecap="round"/>
    <line x1="91" y1="133" x2="217" y2="174" stroke="#30363d" stroke-width="3" stroke-linecap="round"/>
    <circle cx="238" cy="71"  r="22" fill="#0d2818" stroke="#3fb950" stroke-width="3"/>
    <circle cx="238" cy="181" r="22" fill="#161b22" stroke="#30363d" stroke-width="3"/>
    <circle cx="70"  cy="126" r="22" fill="#1c2d3f" stroke="#58a6ff" stroke-width="3"/>
  </g>
</svg>
